<svg fill="none" height="32" viewBox="0 0 32 32" width="32" xmlns="http://www.w3.org/2000/svg" xmlns:xlink="http://www.w3.org/1999/xlink"><filter id="a" color-interpolation-filters="sRGB" filterUnits="userSpaceOnUse" height="10.0806" width="15.2857" x="9.00156" y="12.7943"><feFlood flood-opacity="0" result="BackgroundImageFix"/><feBlend in="SourceGraphic" in2="BackgroundImageFix" mode="normal" result="shape"/><feGaussianBlur result="effect1_foregroundBlur_18_28477" stdDeviation=".5"/></filter><radialGradient id="b" cx="0" cy="0" gradientTransform="matrix(1.7953 0 0 1.80973 13.046 19.9264)" gradientUnits="userSpaceOnUse" r="1"><stop offset="0" stop-color="#ffe0a8"/><stop offset="1" stop-color="#ffdea3"/></radialGradient><linearGradient id="c" gradientUnits="userSpaceOnUse" x1="11.125" x2="21.25" y1="26.75" y2="26.75"><stop offset="0" stop-color="#c5987c"/><stop offset=".216049" stop-color="#cc8953"/><stop offset=".567901" stop-color="#eaa36e"/><stop offset="1" stop-color="#fcbd73"/></linearGradient><linearGradient id="d" gradientUnits="userSpaceOnUse" x1="16.1771" x2="16.1771" y1="22.6293" y2="29.988"><stop offset=".882728" stop-color="#c8746a" stop-opacity="0"/><stop offset="1" stop-color="#be6d82"/></linearGradient><linearGradient id="e" gradientUnits="userSpaceOnUse" x1="10.9021" x2="21.4321" y1="25.75" y2="25.75"><stop offset="0" stop-color="#d4a789"/><stop offset=".424775" stop-color="#fab88d"/><stop offset=".757159" stop-color="#fff0c9"/><stop offset="1" stop-color="#f9cf9a"/></linearGradient><linearGradient id="f" gradientUnits="userSpaceOnUse" x1="16.1671" x2="16.1671" y1="22.6293" y2="29.988"><stop offset=".916702" stop-color="#e09a80" stop-opacity="0"/><stop offset="1" stop-color="#ca7d95"/></linearGradient><linearGradient id="g" gradientUnits="userSpaceOnUse" x1="16.25" x2="15.5977" y1="9.84375" y2="3.19204"><stop offset=".0275603" stop-color="#ffe4a8"/><stop offset=".143815" stop-color="#ffd59b"/><stop offset=".250725" stop-color="#fedcab"/></linearGradient><radialGradient id="h" cx="0" cy="0" gradientTransform="matrix(-1.06250935 2.24999154 -3.70390249 -1.74908702 20.9375 6.875)" gradientUnits="userSpaceOnUse" r="1"><stop offset="0" stop-color="#fff6ba"/><stop offset="1" stop-color="#ffe5b1" stop-opacity="0"/></radialGradient><radialGradient id="i" cx="0" cy="0" gradientTransform="matrix(.75000243 5.81250236 -10.80046047 1.39361176 17.1875 8.0625)" gradientUnits="userSpaceOnUse" r="1"><stop offset=".45355" stop-color="#e0bb89" stop-opacity="0"/><stop offset=".662231" stop-color="#e6be8d"/></radialGradient><radialGradient id="j" cx="0" cy="0" gradientTransform="matrix(-3.6874956 .18751024 -.47932307 -9.42616101 17.9063 4.46875)" gradientUnits="userSpaceOnUse" r="1"><stop offset=".128265" stop-color="#fff8ba"/><stop offset=".347135" stop-color="#ffe0af"/><stop offset=".645989" stop-color="#fad8a6" stop-opacity="0"/></radialGradient><linearGradient id="k" gradientUnits="userSpaceOnUse" x1="16.9054" x2="16.5214" y1="13.754" y2="9.54913"><stop offset=".0571005" stop-color="#ffe4a8"/><stop offset=".157977" stop-color="#ffd59b"/><stop offset=".356286" stop-color="#ffdea7"/><stop offset=".846352" stop-color="#ffe1a8"/><stop offset=".968133" stop-color="#fdd594"/></linearGradient><radialGradient id="l" cx="0" cy="0" gradientTransform="matrix(-14.12504058 1.43750915 -.79333637 -7.79536496 20.4375 10.9375)" gradientUnits="userSpaceOnUse" r="1"><stop offset=".685205" stop-color="#fed29c" stop-opacity="0"/><stop offset=".780293" stop-color="#f9c994"/><stop offset=".880128" stop-color="#e4b783"/></radialGradient><radialGradient id="m" cx="0" cy="0" gradientTransform="matrix(-1.31250534 1.99999961 -3.05684641 -2.00606401 22.875 10.5625)" gradientUnits="userSpaceOnUse" r="1"><stop offset="0" stop-color="#fff8bd"/><stop offset="1" stop-color="#ffe7b1" stop-opacity="0"/></radialGradient><radialGradient id="n" cx="0" cy="0" gradientTransform="matrix(7.523 0 0 7.58349 15.7821 16.8319)" gradientUnits="userSpaceOnUse" r="1"><stop offset=".00558659" stop-color="#fff5d4"/><stop offset="1" stop-color="#ffdea3"/></radialGradient><linearGradient id="o" gradientUnits="userSpaceOnUse" x1="9.39211" x2="22.625" y1="21.625" y2="21.625"><stop offset="0" stop-color="#d2ad8c"/><stop offset=".0884459" stop-color="#d19870"/><stop offset=".319877" stop-color="#eaa26b"/><stop offset=".744954" stop-color="#f8ba81"/><stop offset="1" stop-color="#f8c589"/></linearGradient><linearGradient id="p" gradientUnits="userSpaceOnUse" x1="16.2322" x2="16.2322" y1="19.202" y2="22.6294"><stop offset=".798134" stop-color="#db9176" stop-opacity="0"/><stop offset=".89843" stop-color="#e19978"/><stop offset="1" stop-color="#c97758"/></linearGradient><linearGradient id="q"><stop offset=".029796" stop-color="#d89387"/><stop offset=".312982" stop-color="#f8c6a3"/><stop offset=".577315" stop-color="#ffdba7"/><stop offset=".840851" stop-color="#ffe0a6"/><stop offset=".978024" stop-color="#fdd594"/></linearGradient><linearGradient id="r" gradientUnits="userSpaceOnUse" x1="17" x2="16.5625" xlink:href="#q" y1="20.9855" y2="14.2355"/><radialGradient id="s" cx="0" cy="0" gradientTransform="matrix(.68750326 5.87500034 -13.66485415 1.59908616 18.5625 16.048)" gradientUnits="userSpaceOnUse" r="1"><stop offset=".720443" stop-color="#e1ae83" stop-opacity="0"/><stop offset="1" stop-color="#e7b286"/></radialGradient><linearGradient id="t" gradientUnits="userSpaceOnUse" x1="17" x2="16.5625" xlink:href="#q" y1="20.375" y2="13.625"/><radialGradient id="u" cx="0" cy="0" gradientTransform="matrix(.68750326 5.87500034 -13.66485415 1.59908616 18.5625 15.4375)" gradientUnits="userSpaceOnUse" r="1"><stop offset=".720443" stop-color="#e1ae83" stop-opacity="0"/><stop offset=".925198" stop-color="#e7b286"/></radialGradient><radialGradient id="v" cx="0" cy="0" gradientTransform="matrix(-1.12498403 2.53520569 -3.33476986 -1.47978638 24.3125 14.9375)" gradientUnits="userSpaceOnUse" r="1"><stop offset="0" stop-color="#fff8bd"/><stop offset="1" stop-color="#ffeeb6" stop-opacity="0"/></radialGradient><radialGradient id="w" cx="0" cy="0" gradientTransform="matrix(1.40624541 -.1249994 .22206631 2.49824982 13.3125 20.8437)" gradientUnits="userSpaceOnUse" r="1"><stop offset=".197452" stop-color="#ffd4a8"/><stop offset=".407382" stop-color="#fdc59f"/><stop offset=".831214" stop-color="#fbc49e" stop-opacity="0"/></radialGradient><path d="m14.8021 18.0831h-.73-2.05-.73v2.0262s.44-.0706.65.1814c.11.1311.09.4537.09.4537 0 .5745.46 1.0282 1.02 1.0282s1.02-.4637 1.02-1.0282c0 0-.01-.4033.11-.6049.15-.2621.43-.2721.43-.2721z" fill="url(#b)"/><path d="m15.7121 22.6293h-5.01l.82 6.6026c.05.4335.42.7561.85.7561h3.35 4.26c.43 0 .79-.3226.85-.7561l.82-6.6026z" fill="url(#c)"/><path d="m15.7121 22.6293h-5.01l.82 6.6026c.05.4335.42.7561.85.7561h3.35 4.26c.43 0 .79-.3226.85-.7561l.82-6.6026z" fill="url(#d)"/><g opacity=".5"><path d="m19.8421 22.6293h-1.4l-2.21 2.2277-2.21-2.2277h-1.4l-1.72 1.7338.32 2.6108 1.45 1.4617-1.08 1.0887c.14.2721.43.4637.76.4637h.07l.89-.8972.89.8972h1.29l-1.51-1.5524 2.26-2.2782 2.26 2.2782-1.54 1.5524h1.29l.89-.8972.89.8972c.34-.0202.62-.242.74-.5545l-.99-.9979 1.3-1.3105.18-1.4818-2.13 2.1471-2.26-2.2781 2.26-2.2782 2.16 2.1774.14-1.1593zm-6.51 5.1511-2.26-2.2782 2.26-2.2782 2.26 2.2782z" fill="url(#e)"/><path d="m19.8421 22.6293h-1.4l-2.21 2.2277-2.21-2.2277h-1.4l-1.72 1.7338.32 2.6108 1.45 1.4617-1.08 1.0887c.14.2721.43.4637.76.4637h.07l.89-.8972.89.8972h1.29l-1.51-1.5524 2.26-2.2782 2.26 2.2782-1.54 1.5524h1.29l.89-.8972.89.8972c.34-.0202.62-.242.74-.5545l-.99-.9979 1.3-1.3105.18-1.4818-2.13 2.1471-2.26-2.2781 2.26-2.2782 2.16 2.1774.14-1.1593zm-6.51 5.1511-2.26-2.2782 2.26-2.2782 2.26 2.2782z" fill="url(#f)"/></g><path d="m21.8359 7.40625c0-.94531-1.3203-1.59371-2.039-1.59371h-1.125c-.17.01008-.6719-.11719-.6719-.5 0 0-.0469-1.00328-.0469-1.53125 0-.52798-.274-1.31506-1.164-1.23441-.75.07056-1.007.7684-1.067 1.07082-.06.33265-.2933.81299-.7533 1.15572-.95.70563-3.8047 1.82031-3.8047 1.82031-.8414.2827-1.52099 1.22057-1.45316 2.10938 0 .44441.31246.85194.31246 1.17187 0 .31992-.60934.49222-.60934.49222l12.60154-1.00782s-.4609-.28126-.4609-.61719c0-.28125.2812-.57031.2812-1.33594z" fill="url(#g)"/><path d="m21.8359 7.40625c0-.94531-1.3203-1.59371-2.039-1.59371h-1.125c-.17.01008-.6719-.11719-.6719-.5 0 0-.0469-1.00328-.0469-1.53125 0-.52798-.274-1.31506-1.164-1.23441-.75.07056-1.007.7684-1.067 1.07082-.06.33265-.2933.81299-.7533 1.15572-.95.70563-3.8047 1.82031-3.8047 1.82031-.8414.2827-1.52099 1.22057-1.45316 2.10938 0 .44441.31246.85194.31246 1.17187 0 .31992-.60934.49222-.60934.49222l12.60154-1.00782s-.4609-.28126-.4609-.61719c0-.28125.2812-.57031.2812-1.33594z" fill="url(#h)"/><path d="m21.8359 7.40625c0-.94531-1.3203-1.59371-2.039-1.59371h-1.125c-.17.01008-.6719-.11719-.6719-.5 0 0-.0469-1.00328-.0469-1.53125 0-.52798-.274-1.31506-1.164-1.23441-.75.07056-1.007.7684-1.067 1.07082-.06.33265-.2933.81299-.7533 1.15572-.95.70563-3.8047 1.82031-3.8047 1.82031-.8414.2827-1.52099 1.22057-1.45316 2.10938 0 .44441.31246.85194.31246 1.17187 0 .31992-.60934.49222-.60934.49222l12.60154-1.00782s-.4609-.28126-.4609-.61719c0-.28125.2812-.57031.2812-1.33594z" fill="url(#i)"/><path d="m21.8359 7.40625c0-.94531-1.3203-1.59371-2.039-1.59371h-1.125c-.17.01008-.6719-.11719-.6719-.5 0 0-.0469-1.00328-.0469-1.53125 0-.52798-.274-1.31506-1.164-1.23441-.75.07056-1.007.7684-1.067 1.07082-.06.33265-.2933.81299-.7533 1.15572-.95.70563-3.8047 1.82031-3.8047 1.82031-.8414.2827-1.52099 1.22057-1.45316 2.10938 0 .44441.31246.85194.31246 1.17187 0 .31992-.60934.49222-.60934.49222l12.60154-1.00782s-.4609-.28126-.4609-.61719c0-.28125.2812-.57031.2812-1.33594z" fill="url(#j)"/><path d="m21.3021 9.24249c-1.5104.12539-11.44 1.00801-11.44 1.00801-1.36.121-2.26835 1.2963-2.26835 2.3979 0 .7969.40624.9922.40624 1.4687 0 .4766-.40624.6094-.40624.6094l16.60155-1.0859s-.4071-.2656-.4071-.871c0-.3712.2743-.504.2743-1.2227 0-1.2735-1.25-2.42979-2.7604-2.30441z" fill="url(#k)"/><path d="m21.3021 9.24249c-1.5104.12539-11.44 1.00801-11.44 1.00801-1.36.121-2.26835 1.2963-2.26835 2.3979 0 .7969.40624.9922.40624 1.4687 0 .4766-.40624.6094-.40624.6094l16.60155-1.0859s-.4071-.2656-.4071-.871c0-.3712.2743-.504.2743-1.2227 0-1.2735-1.25-2.42979-2.7604-2.30441z" fill="url(#l)"/><path d="m21.3021 9.24249c-1.5104.12539-11.44 1.00801-11.44 1.00801-1.36.121-2.26835 1.2963-2.26835 2.3979 0 .7969.40624.9922.40624 1.4687 0 .4766-.40624.6094-.40624.6094l16.60155-1.0859s-.4071-.2656-.4071-.871c0-.3712.2743-.504.2743-1.2227 0-1.2735-1.25-2.42979-2.7604-2.30441z" fill="url(#m)"/><path d="m25.7721 15.956c-.15-1.6733-1.61-2.9132-3.27-2.7721l-13.95999 1.2298c-1.66.1512-2.89 1.623-2.75 3.2963.15 1.6734 1.61 2.9133 3.27 2.7721l8.03999-.7056c.27-.0202 3.42-.3024 3.66-.3226l2.26-.2016c1.66-.1512 2.89-1.6229 2.75-3.2963z" fill="url(#n)"/><path d="m22.2221 22.6294h-11.97c-.47 0-.85999-.3831-.85999-.867v-1.5019l13.67999-1.0585v2.5604c.01.4839-.38.867-.85.867z" fill="url(#o)"/><path d="m22.2221 22.6294h-11.97c-.47 0-.85999-.3831-.85999-.867v-1.5019l13.67999-1.0585v2.5604c.01.4839-.38.867-.85.867z" fill="url(#p)"/><g filter="url(#a)"><path d="m22.5021 13.7943c-3.0061.2648-10.0983 3.6295-12.3927 5.6431-.46807.4108.7028.7018 1.3081.9635.3012.1303.3505.5866.395.724.1338.4135.5.75 1 .75s.9922-.5422.9922-.8359c0-.2016-.0938-.5599 1.039-.6381 1.1329-.0781 2.0081-.1285 5.9688-.4375 3.9607-.3089 2.0733-3.5468 1.6896-6.1691z" fill="url(#r)"/><path d="m22.5021 13.7943c-3.0061.2648-10.0983 3.6295-12.3927 5.6431-.46807.4108.7028.7018 1.3081.9635.3012.1303.3505.5866.395.724.1338.4135.5.75 1 .75s.9922-.5422.9922-.8359c0-.2016-.0938-.5599 1.039-.6381 1.1329-.0781 2.0081-.1285 5.9688-.4375 3.9607-.3089 2.0733-3.5468 1.6896-6.1691z" fill="url(#s)"/><path d="m22.5021 13.7943c-3.0061.2648-10.0983 3.6295-12.3927 5.6431-.46807.4108.7028.7018 1.3081.9635.3012.1303.3505.5866.395.724.1338.4135.5.75 1 .75s.9922-.5422.9922-.8359c0-.2016-.0938-.5599 1.039-.6381 1.1329-.0781 2.0081-.1285 5.9688-.4375 3.9607-.3089 2.0733-3.5468 1.6896-6.1691z" fill="#c67b4d"/></g><path d="m25.7721 15.956c-.15-1.6733-1.61-2.9132-3.27-2.7721l-13.95999 1.2298c-1.66.1512-2.89 1.623-2.75 3.2963.15 1.6734 1.61 2.9133 3.27 2.7721l2.32999-.2016c.22-.0201.41.1613.41.3831l.03.1915c0 .504.41.9173.91.9173s.91-.4133.91-.9173l-.03-.4234c0-.2016.15-.3629.35-.383l3.12-.2722c.27-.0202 3.42-.3024 3.66-.3226l2.26-.2016c1.67-.1512 2.9-1.6229 2.76-3.2963z" fill="url(#t)"/><path d="m25.7721 15.956c-.15-1.6733-1.61-2.9132-3.27-2.7721l-13.95999 1.2298c-1.66.1512-2.89 1.623-2.75 3.2963.15 1.6734 1.61 2.9133 3.27 2.7721l2.32999-.2016c.22-.0201.41.1613.41.3831l.03.1915c0 .504.41.9173.91.9173s.91-.4133.91-.9173l-.03-.4234c0-.2016.15-.3629.35-.383l3.12-.2722c.27-.0202 3.42-.3024 3.66-.3226l2.26-.2016c1.67-.1512 2.9-1.6229 2.76-3.2963z" fill="url(#u)"/><path d="m25.7721 15.956c-.15-1.6733-1.61-2.9132-3.27-2.7721l-13.95999 1.2298c-1.66.1512-2.89 1.623-2.75 3.2963.15 1.6734 1.61 2.9133 3.27 2.7721l2.32999-.2016c.22-.0201.41.1613.41.3831l.03.1915c0 .504.41.9173.91.9173s.91-.4133.91-.9173l-.03-.4234c0-.2016.15-.3629.35-.383l3.12-.2722c.27-.0202 3.42-.3024 3.66-.3226l2.26-.2016c1.67-.1512 2.9-1.6229 2.76-3.2963z" fill="url(#v)"/><path d="m25.7721 15.956c-.15-1.6733-1.61-2.9132-3.27-2.7721l-13.95999 1.2298c-1.66.1512-2.89 1.623-2.75 3.2963.15 1.6734 1.61 2.9133 3.27 2.7721l2.32999-.2016c.22-.0201.41.1613.41.3831l.03.1915c0 .504.41.9173.91.9173s.91-.4133.91-.9173l-.03-.4234c0-.2016.15-.3629.35-.383l3.12-.2722c.27-.0202 3.42-.3024 3.66-.3226l2.26-.2016c1.67-.1512 2.9-1.6229 2.76-3.2963z" fill="url(#w)"/></svg>